<?xml version="1.0" encoding="UTF-8"?>
<svg id="Capa_1" data-name="Capa 1" xmlns="http://www.w3.org/2000/svg" version="1.1" viewBox="0 0 841.9 595.3">
  <defs>
    <style>
      .cls-1 {
        fill: #bf0811;
      }

      .cls-1, .cls-2 {
        stroke: #000;
        stroke-miterlimit: 10;
      }

      .cls-2 {
        fill: #7c6a00;
      }
    </style>
  </defs>
  <path class="cls-2" d="M388.2,394.8h-74.9c-40.8,0-73.8-33.1-73.8-73.8v-74.9c0-40.8,33.1-73.8,73.8-73.8h74.9c40.8,0,73.8,33.1,73.8,73.8v74.9c0,40.7-33,73.8-73.8,73.8Z"/>
  <path class="cls-1" d="M476.3,486.2h-74.9c-40.8,0-73.8-33.1-73.8-73.8v-74.9c0-40.8,33.1-73.8,73.8-73.8h74.9c40.8,0,73.8,33.1,73.8,73.8v74.9c.1,40.7-33,73.8-73.8,73.8Z"/>
</svg>